<?xml version="1.0" encoding="UTF-8"?>
<svg id="Layer_2" data-name="Layer 2" xmlns="http://www.w3.org/2000/svg" xmlns:xlink="http://www.w3.org/1999/xlink" viewBox="0 0 255.9 272.96">
  <defs>
    <style>
      .cls-1 {
        fill: #c28f2c;
      }

      .cls-2 {
        clip-path: url(#clippath);
      }

      .cls-3 {
        fill: none;
      }
    </style>
    <clipPath id="clippath">
      <rect class="cls-3" width="255.9" height="272.96"/>
    </clipPath>
  </defs>
  <g id="Layer_1-2" data-name="Layer 1">
    <g class="cls-2">
      <path class="cls-1" d="M15.41,83.17C5.59,100.97,0,121.36,0,143.03s5.59,42.08,15.41,59.89V83.17Z"/>
      <path class="cls-1" d="M127.95,17.25c-10.38,0-20.45,1.25-30.12,3.54v19.79c9.57-2.7,19.66-4.17,30.12-4.17,59.9,0,108.46,47.58,108.46,106.31,0,26.44-9.87,50.63-26.17,69.22l-3.09,10.86-6.86,24.01c33.59-22.66,55.63-60.67,55.63-103.74-.02-69.49-57.31-125.81-127.97-125.81Z"/>
      <path class="cls-1" d="M97.83,208.31h100.28c16.61-17.07,26.83-40.16,26.83-65.6,0-52.51-43.43-95.07-97-95.07-10.52,0-20.63,1.67-30.12,4.7V208.31Z"/>
      <polygon class="cls-1" points="86.23 0 13.22 0 27.01 28.14 27.01 244.84 13.22 272.96 180.78 272.96 195.96 219.72 86.23 219.72 86.23 0"/>
    </g>
  </g>
</svg>